Coordinates
version=1
nRows=12
nColumns=24
inDegrees=yes

Units are S.I. units (second, meters, Newtons, ...)
Angles are in degrees.

endheader
time	pelvis_tilt	pelvis_list	pelvis_rotation	pelvis_tx	pelvis_ty	pelvis_tz	hip_flexion_r	hip_adduction_r	hip_rotation_r	knee_angle_r	ankle_angle_r	subtalar_angle_r	mtp_angle_r	hip_flexion_l	hip_adduction_l	hip_rotation_l	knee_angle_l	ankle_angle_l	subtalar_angle_l	mtp_angle_l	lumbar_extension	lumbar_bending	lumbar_rotation
      0.94583333	      5.34780843	     -1.85250299	     -1.05699508	     -0.38350401	      1.08127464	      0.32245240	      0.95124539	      7.16196322	     -4.71410205	     -9.39330129	     -0.72492556	     -9.91959387	      6.33453146	      8.90901647	     -2.42393456	      0.26332949	    -59.56377700	     -1.61299604	    -10.34877054	     20.35438347	     -1.03183016	      6.61002684	      1.57220545
      0.95000000	      5.36968014	     -1.82423458	     -1.22182772	     -0.37882442	      1.08178288	      0.32267265	      0.53866618	      7.14370651	     -4.52703103	     -9.18933361	     -0.63977821	    -10.09170336	      6.31535417	      9.32487690	     -2.30020618	      0.42016476	    -59.04023306	     -1.14031571	    -10.93556862	     19.95863166	     -1.15872579	      6.62446412	      1.74127883
      0.95416667	      5.37010601	     -1.83891448	     -1.25281127	     -0.37410648	      1.08220927	      0.32297135	      0.10345427	      7.20060207	     -4.29095027	     -8.87763446	     -0.58630725	    -10.10085394	      6.30792793	      9.78319570	     -2.24022416	      0.70557818	    -58.49831150	     -0.87224669	    -11.21719245	     19.79547204	     -1.14975974	      6.57731157	      1.82894511
      0.95833333	      5.39319846	     -1.82715430	     -1.44061247	     -0.36958160	      1.08264515	      0.32337540	     -0.32345554	      7.21404019	     -3.89143923	     -8.63074239	     -0.58813423	    -10.46697766	      6.22751196	     10.18687378	     -2.16244908	      0.81159935	    -57.89689271	     -0.71072929	    -12.12467173	     18.42370110	     -1.43126150	      6.60669265	      2.30859583
      0.96250000	      5.39935344	     -1.80115542	     -1.49598905	     -0.36470726	      1.08307992	      0.32354309	     -0.76563096	      7.20489784	     -3.78276707	     -8.33969706	     -0.50101519	    -10.45125875	      6.21962527	     10.57869086	     -2.04256114	      1.07652158	    -57.23193423	     -0.32061934	    -12.30166951	     18.28033296	     -1.27454342	      6.55644938	      2.34396792
      0.96666667	      5.37049516	     -1.79678133	     -1.58169493	     -0.36002999	      1.08339463	      0.32376938	     -1.14920659	      7.22065532	     -3.58986482	     -8.07650313	     -0.39292289	    -10.48164019	      6.20679764	     11.01689619	     -1.95892020	      1.29914492	    -56.56512527	      0.14460190	    -12.65995175	     18.07685064	     -1.26920493	      6.51413604	      2.38137735
      0.97083333	      5.32988543	     -1.78551104	     -1.67570011	     -0.35534623	      1.08367950	      0.32401043	     -1.52201286	      7.22808404	     -3.38786067	     -7.80839263	     -0.30624407	    -10.53402586	      6.19325531	     11.45112953	     -1.87290881	      1.50415642	    -55.84370525	      0.47401361	    -13.00878500	     17.88318749	     -1.24918888	      6.48317452	      2.43336702
      0.97500000	      5.30906602	     -1.75835138	     -1.89341994	     -0.35071207	      1.08398521	      0.32445435	     -1.91547623	      7.21536726	     -2.98182301	     -7.54203095	     -0.35101135	    -10.99285670	      6.02803356	     11.82544170	     -1.79972404	      1.55129622	    -55.02095969	      0.28879764	    -13.94573417	     15.81547621	     -1.29792643	      6.53666481	      2.88277321
      0.97916667	      5.25176510	     -1.76675426	     -1.91333806	     -0.34606369	      1.08415633	      0.32460532	     -2.27364386	      7.24586105	     -2.85514151	     -7.25743016	     -0.24992818	    -10.92461189	      6.01696796	     12.27203132	     -1.73165374	      1.82436979	    -54.25698406	      0.77340386	    -14.09134863	     15.66190367	     -1.27430909	      6.44963865	      2.88944273
      0.98333333	      5.20308340	     -1.75666508	     -2.00877619	     -0.34140295	      1.08434074	      0.32479907	     -2.63119425	      7.24415441	     -2.70262282	     -7.00030076	     -0.14136354	    -10.92261702	      6.00295616	     12.67249878	     -1.65335293	      2.01316228	    -53.41531203	      1.13113182	    -14.31470867	     15.48947797	     -1.23155848	      6.43560202	      2.89858951
      0.98750000	      5.12235322	     -1.74913340	     -2.10001855	     -0.33684661	      1.08442874	      0.32489182	     -2.93263919	      7.23470589	     -2.59494410	     -6.77782724	     -0.08483962	    -10.93005591	      5.99681017	     13.10744219	     -1.57212187	      2.22228900	    -52.53873185	      1.29817367	    -14.44364884	     15.41651432	     -1.28968249	      6.45441321	      2.90203959
      0.99166667	      5.06673980	     -1.74067399	     -2.26741194	     -0.33217908	      1.08455487	      0.32528138	     -3.28741390	      7.23742501	     -2.32673855	     -6.51810311	      0.07660469	    -11.06059407	      5.96084257	     13.47191030	     -1.53366695	      2.28107382	    -51.61098542	      1.64987265	    -15.04643333	     15.03260094	     -1.20641638	      6.36487599	      2.98785061
